<mxfile host="65bd71144e">
    <diagram id="alVGy1VB9Wxrf0zhZU4i" name="Page-1">
        <mxGraphModel dx="712" dy="577" grid="1" gridSize="10" guides="1" tooltips="1" connect="1" arrows="1" fold="1" page="1" pageScale="1" pageWidth="850" pageHeight="1100" math="0" shadow="0">
            <root>
                <mxCell id="0"/>
                <mxCell id="1" parent="0"/>
                <mxCell id="2" value="GumTreeAlgorithm" style="rounded=1;whiteSpace=wrap;html=1;" vertex="1" parent="1">
                    <mxGeometry x="180" y="320" width="120" height="60" as="geometry"/>
                </mxCell>
                <mxCell id="3" value="MinimumEditScript" style="rounded=1;whiteSpace=wrap;html=1;" vertex="1" parent="1">
                    <mxGeometry x="180" y="400" width="120" height="60" as="geometry"/>
                </mxCell>
                <mxCell id="4" value="Expression" style="rounded=1;whiteSpace=wrap;html=1;" vertex="1" parent="1">
                    <mxGeometry x="620" y="90" width="80" height="30" as="geometry"/>
                </mxCell>
                <mxCell id="5" value="SchemeNode" style="rounded=1;whiteSpace=wrap;html=1;" vertex="1" parent="1">
                    <mxGeometry x="490" y="135" width="120" height="60" as="geometry"/>
                </mxCell>
                <mxCell id="6" value="Identifier" style="rounded=1;whiteSpace=wrap;html=1;" vertex="1" parent="1">
                    <mxGeometry x="620" y="130" width="80" height="30" as="geometry"/>
                </mxCell>
                <mxCell id="7" value="Number" style="rounded=1;whiteSpace=wrap;html=1;" vertex="1" parent="1">
                    <mxGeometry x="620" y="170" width="80" height="30" as="geometry"/>
                </mxCell>
                <mxCell id="8" value="String" style="rounded=1;whiteSpace=wrap;html=1;" vertex="1" parent="1">
                    <mxGeometry x="620" y="210" width="80" height="30" as="geometry"/>
                </mxCell>
                <mxCell id="9" value="" style="group" vertex="1" connectable="0" parent="1">
                    <mxGeometry x="450" y="320" width="230" height="110" as="geometry"/>
                </mxCell>
                <mxCell id="10" value="AstEdit" style="rounded=1;whiteSpace=wrap;html=1;" vertex="1" parent="9">
                    <mxGeometry x="55" width="120" height="60" as="geometry"/>
                </mxCell>
                <mxCell id="11" value="Delete" style="rounded=1;whiteSpace=wrap;html=1;" vertex="1" parent="9">
                    <mxGeometry x="180" y="80" width="50" height="30" as="geometry"/>
                </mxCell>
                <mxCell id="12" value="Update" style="rounded=1;whiteSpace=wrap;html=1;" vertex="1" parent="9">
                    <mxGeometry x="60" y="80" width="50" height="30" as="geometry"/>
                </mxCell>
                <mxCell id="13" value="Add" style="rounded=1;whiteSpace=wrap;html=1;" vertex="1" parent="9">
                    <mxGeometry x="120" y="80" width="50" height="30" as="geometry"/>
                </mxCell>
                <mxCell id="14" value="Move" style="rounded=1;whiteSpace=wrap;html=1;" vertex="1" parent="9">
                    <mxGeometry y="80" width="50" height="30" as="geometry"/>
                </mxCell>
            </root>
        </mxGraphModel>
    </diagram>
</mxfile>